<?xml version="1.0" encoding="UTF-8"?>
<svg id="_레이어_1" data-name="레이어_1" xmlns="http://www.w3.org/2000/svg" viewBox="0 0 366.27 250.23">
  <defs>
    <style>
      .cls-1 {
        fill: #f0f;
      }
    </style>
  </defs>
  <g>
    <polygon points="121.61 227.56 121.61 209.92 121.19 209.92 121.19 200.5 130.47 200.5 130.47 209.92 130.19 209.92 130.19 227.56 121.61 227.56"/>
    <path class="cls-1" d="M129.15,201.82v6.77h-6.63v-6.77h6.63M128.86,210.36v15.88h-5.93v-15.88h5.93M131.79,199.17h-11.93v12.07h.42v17.64h11.22v-17.64h.28v-12.07h0Z"/>
  </g>
  <g>
    <path d="M146.86,227.56c-6.11,0-7.39-3.75-7.39-6.9v-2.42h-6.07v-8.57h6.07v-9.17h8.58v9.17h20.89v8.57h-20.89v.74h21.24v8.57h-22.42Z"/>
    <path class="cls-1" d="M146.72,201.82v9.17h20.89v5.93h-20.89v3.18c0,.21.14.21.35.21h20.89v5.93h-21.1c-3.67,0-6.07-1.41-6.07-5.57v-3.74h-6.07v-5.93h6.07v-9.17h5.93M149.36,199.17h-11.22v9.17h-6.07v11.22h6.07v1.09c0,5.22,3.18,8.22,8.72,8.22h23.75v-11.22h-.35v-9.32h-20.89v-9.17h0Z"/>
  </g>
  <g>
    <path d="M190.2,226.09c-6.5,0-9.79-3.03-9.79-9.02v-8.87h8.57v8.66c0,.44.07.57.08.59h0s.14.07.5.07h17.85c.44,0,.58-.09.59-.09h0s.06-.12.06-.56v-8.66h8.57v8.87c0,5.98-3.27,9.02-9.72,9.02h-16.72Z"/>
    <path class="cls-1" d="M215.33,209.52v7.55c0,6.42-4.02,7.69-8.4,7.69h-16.73c-4.38,0-8.47-1.27-8.47-7.69v-7.55h5.93v7.34c0,1.06.28,1.98,1.91,1.98h17.85c1.69,0,1.98-.92,1.98-1.98v-7.34h5.93M217.97,206.88h-11.22v9.32h-16.44v-9.32h-11.22v10.2c0,4.72,1.93,10.34,11.11,10.34h16.73c9.13,0,11.04-5.62,11.04-10.34v-10.2h0Z"/>
  </g>
  <g>
    <path d="M222.68,240.14v-31.94h25.25c2.61,0,10.57,0,10.57,8.52v.78c0,8.59-7.68,8.59-10.57,8.59h-16.67v14.05h-8.57ZM248.92,217.52c.57,0,.87-.07,1-.11v-.51c-.11-.04-.37-.11-.86-.11h-17.8v.74h17.66Z"/>
    <path class="cls-1" d="M247.93,209.52c4.8,0,9.24,1.06,9.24,7.2v.78c0,6.21-4.23,7.27-9.24,7.27h-18v14.05h-5.93v-29.29h23.92M229.93,218.84h18.98c1.91,0,2.33-.63,2.33-1.34v-.71c0-.64-.42-1.34-2.19-1.34h-19.12v3.39M247.93,206.88h-26.57v34.58h11.22v-14.05h15.35c2.94,0,11.89,0,11.89-9.92v-.78c0-6.53-4-9.84-11.89-9.84h0Z"/>
  </g>
  <g>
    <g>
      <path d="M34.47,163.56c-3,0-6.03-.15-9.01-.44-3.07-.3-6.15-.87-9.15-1.68-.96-.24-2.13-.58-3.35-.99-1.41-.47-2.77-1.08-4.03-1.82-1.44-.84-2.68-1.86-3.71-3.06-1.28-1.49-2.05-3.26-2.3-5.25-.26-2.46.3-4.7,1.62-6.52,1.06-1.46,2.5-2.7,4.27-3.67,1.49-.82,3.17-1.49,4.99-2,1.64-.46,3.33-.84,5.01-1.13,1.63-.27,3.15-.49,4.54-.64,1.31-.14,2.38-.26,3.22-.35,6.22-.76,12.52-1.28,18.72-1.54,6.13-.26,12.39-.44,18.61-.53,1.55,0,3.03-.01,4.51-.04.86-.01,1.72-.02,2.58-.03.64-.74,1.27-1.49,1.88-2.23,1.06-1.3,2.13-2.6,3.22-3.92,2-2.55,4.03-5.15,6.02-7.73.29-.37.58-.74.87-1.11-2.16-.1-4.34-.15-6.52-.15-1.08,0-2.17.01-3.26.04-6.1.13-12.11.86-17.87,2.15-.99.21-1.99.47-2.99.77-.85.25-1.69.59-2.5.99-.13.07-.37.2-.72.44-.66.45-1.35.84-2.06,1.16-.99.45-2.03.67-3.09.67-.12,0-.24,0-.36,0-1.89-.09-3.54-1.08-4.64-2.77-1.38-1.98-1.56-4.31-.49-6.36.66-1.28,1.73-2.39,3.17-3.31,1.01-.64,2.21-1.24,3.55-1.76,1.16-.45,2.31-.86,3.44-1.22,1.17-.37,2.27-.67,3.26-.88.99-.21,1.37-.31,1.51-.35l.27-.07c6.21-1.28,12.58-2,18.98-2.15,1.34-.03,2.69-.05,4.03-.05,4.93,0,9.89.21,14.73.63.45.05.93.07,1.5.09.89.03,1.77.12,2.63.28,1.08.19,2.1.53,3.04,1,1.62.81,2.78,2.13,3.34,3.82.74,2.36.21,4.68-1.42,6.39-.49.51-.96,1.01-1.4,1.5-.67.72-1.3,1.41-1.92,2.13l-1.98,2.26c-2.29,2.7-4.53,5.49-6.64,8.29-.37.49-.75.98-1.13,1.48,1.77,0,3.6.03,5.45.07h.02c.83,0,1.69.01,2.56.04.67.02,1.34.04,2.05.04,1.07,0,2.05-.04,3.1-.13.4-.03.8-.05,1.19-.05,1.26,0,2.45.18,3.55.52l.19.06c1.19.45,2.18,1.18,2.89,2.13.67.9,1.08,1.91,1.23,3.01.13,1.03.04,2.04-.29,3.03-.42,1.24-1.21,2.31-2.29,3.08-.9.64-1.95,1.06-3.11,1.23-.57.08-1.17.13-1.78.13-.2,0-.39,0-.59-.01-.67-.03-1.34-.09-1.98-.18-.34-.05-.56-.06-.68-.06l-12.12-.14h-10.27c-.19.19-.39.4-.6.61-1.74,1.74-3.56,3.39-5.42,4.89-1.88,1.52-3.91,2.96-6.03,4.28-2.32,1.42-4.76,2.61-7.27,3.56-2.45.92-5,1.66-7.56,2.2-2.52.53-5.11.9-7.69,1.1-2.51.2-5.05.3-7.54.3ZM21.05,149.67c1.69.39,3.44.68,5.19.86,1.89.2,3.82.3,5.74.3h.53c2.22-.03,4.33-.08,6.26-.17,4.67-.26,9.37-1.1,13.95-2.49,1.16-.35,2.24-.78,3.24-1.27-2.51.07-5.01.14-7.49.23-6.74.23-13.58.77-20.33,1.59-2.3.27-4.69.59-7.11.96Z"/>
      <path class="cls-1" d="M76.71,107.32c4.91,0,9.81.21,14.62.62.46.05.97.08,1.57.1.83.03,1.65.12,2.44.26.95.17,1.85.47,2.68.88,1.3.65,2.23,1.71,2.68,3.05.59,1.88.17,3.7-1.12,5.05-.5.52-.97,1.03-1.42,1.53-.67.71-1.3,1.42-1.94,2.15l-1.98,2.26c-2.32,2.73-4.58,5.55-6.7,8.36-.9,1.2-1.83,2.4-2.78,3.59h.77c2.38,0,4.85.02,7.36.07h.05c.8,0,1.66.01,2.52.04.68.02,1.36.04,2.09.04.96,0,2-.03,3.21-.13.37-.03.72-.05,1.08-.05,1.12,0,2.18.15,3.15.46l.15.05c.92.35,1.7.92,2.27,1.67.53.71.86,1.52.98,2.4.11.82.03,1.64-.24,2.44-.33.98-.95,1.81-1.81,2.42-.73.52-1.58.86-2.54,1-.51.08-1.04.11-1.58.11-.18,0-.36,0-.53-.01-.63-.03-1.25-.08-1.85-.17-.43-.06-.71-.07-.87-.07l-12.1-.14h-10.86c-.28.3-.6.63-.97,1-1.71,1.71-3.5,3.33-5.32,4.8-1.83,1.49-3.82,2.89-5.89,4.18-2.24,1.37-4.6,2.53-7.03,3.44-2.39.9-4.87,1.62-7.36,2.14-2.47.52-5,.88-7.52,1.08-2.48.19-4.98.29-7.44.29-2.96,0-5.94-.15-8.88-.44-3-.3-6-.85-8.93-1.64-.95-.24-2.07-.57-3.27-.97-1.33-.44-2.6-1.02-3.79-1.71-1.31-.76-2.44-1.69-3.37-2.78-1.11-1.29-1.77-2.82-1.99-4.56-.23-2.12.25-4.03,1.38-5.58.95-1.31,2.24-2.41,3.83-3.29,1.41-.77,2.99-1.41,4.71-1.89,1.6-.45,3.24-.82,4.87-1.09,1.6-.27,3.1-.48,4.46-.63,1.31-.14,2.39-.26,3.23-.35,6.19-.76,12.47-1.27,18.63-1.53,6.12-.26,12.37-.44,18.57-.53,1.54,0,3.02-.01,4.51-.04,1.06-.02,2.11-.03,3.17-.03.78-.9,1.55-1.81,2.29-2.72,1.06-1.3,2.13-2.6,3.22-3.92,2.02-2.57,4.05-5.18,6.05-7.76.8-1.04,1.63-2.08,2.49-3.1-3.03-.19-6.1-.29-9.18-.29-1.09,0-2.19.01-3.28.04-6.18.14-12.28.87-18.13,2.18-1.02.22-2.05.49-3.08.79-.93.28-1.84.64-2.71,1.07-.25.12-.54.3-.87.53-.59.41-1.22.76-1.85,1.04-.83.37-1.68.56-2.54.56-.1,0-.2,0-.29,0-1.45-.07-2.73-.84-3.6-2.17-1.11-1.59-1.26-3.42-.42-5.02.55-1.07,1.47-2.01,2.7-2.8.94-.6,2.06-1.15,3.32-1.65,1.13-.44,2.26-.85,3.36-1.2,1.13-.36,2.19-.64,3.14-.85,1.04-.23,1.45-.33,1.6-.37l.23-.06c6.08-1.26,12.37-1.96,18.69-2.11,1.33-.03,2.66-.05,4-.05M31.98,152.15c.18,0,.37,0,.55,0,2.23-.02,4.35-.08,6.31-.17,4.78-.27,9.59-1.12,14.27-2.55,1.9-.58,3.63-1.35,5.13-2.28.91-.57,1.76-1.13,2.54-1.69-4.14.09-8.27.21-12.35.34-6.78.23-13.66.77-20.44,1.6-2.4.28-4.89.62-7.42,1.01-1.47.23-2.88.6-4.21,1.1,1.1.52,2.28.94,3.53,1.25,2.01.5,4.1.87,6.2,1.09,1.95.2,3.91.3,5.87.3M76.71,104.68c-1.35,0-2.71.02-4.06.05-6.48.15-12.92.88-19.16,2.16h-.05s-.05.02-.05.02l-.23.06h-.05s-.05.02-.05.02c-.03,0-.34.1-1.43.33-1.04.22-2.18.53-3.39.92-1.16.37-2.35.79-3.53,1.25-1.42.56-2.69,1.19-3.78,1.88-1.64,1.04-2.86,2.33-3.63,3.82-1.28,2.45-1.06,5.34.58,7.72,1.33,2.01,3.39,3.22,5.66,3.33.14,0,.28.01.42.01,1.24,0,2.46-.27,3.63-.79.78-.35,1.54-.78,2.26-1.27.3-.21.48-.3.56-.34.73-.37,1.5-.67,2.28-.9.97-.29,1.94-.54,2.89-.74,5.69-1.28,11.61-1.99,17.62-2.12,1.07-.02,2.16-.04,3.23-.04,1.29,0,2.59.02,3.88.05-1.73,2.24-3.51,4.52-5.3,6.79-1.08,1.31-2.15,2.61-3.2,3.9-.48.58-.97,1.17-1.46,1.75-.66,0-1.32.01-1.99.02-1.43.02-2.89.03-4.47.03-6.27.1-12.54.28-18.68.53-6.23.26-12.57.79-18.84,1.55-.78.09-1.8.2-3.02.33l-.17.02c-1.41.15-2.97.37-4.62.65-1.73.29-3.46.68-5.15,1.16-1.91.54-3.69,1.25-5.27,2.12-1.95,1.07-3.53,2.44-4.71,4.06-1.51,2.09-2.16,4.65-1.86,7.42.29,2.3,1.16,4.31,2.61,6,1.12,1.31,2.48,2.43,4.05,3.34,1.34.78,2.78,1.43,4.28,1.93,1.24.41,2.43.76,3.45,1.02,3.07.83,6.21,1.41,9.34,1.72,3.02.3,6.1.45,9.14.45,2.52,0,5.1-.1,7.65-.3,2.63-.21,5.28-.59,7.86-1.13,2.63-.55,5.24-1.31,7.75-2.25,2.59-.97,5.11-2.2,7.49-3.66,2.18-1.35,4.25-2.82,6.18-4.38,1.89-1.53,3.75-3.21,5.53-4.99.08-.08.15-.15.22-.22h9.73l12.07.14s.2,0,.52.05c.69.1,1.4.16,2.11.19.21,0,.43.01.65.01.68,0,1.34-.05,1.97-.14,1.37-.21,2.61-.7,3.68-1.46,1.31-.94,2.27-2.23,2.78-3.74.39-1.19.51-2.41.35-3.63-.18-1.34-.68-2.56-1.48-3.63-.87-1.16-2.07-2.04-3.46-2.57h-.03s-.03-.02-.03-.02l-.15-.05h-.03s-.03-.02-.03-.02c-1.23-.39-2.55-.58-3.94-.58-.42,0-.86.02-1.29.05-1.01.09-1.97.12-2.99.12-.7,0-1.35-.02-2.01-.04-.9-.02-1.77-.04-2.59-.04h-.05c-.93-.02-1.85-.03-2.77-.04,1.95-2.57,4.02-5.13,6.14-7.62l1.95-2.23c.63-.72,1.25-1.4,1.88-2.08.46-.51.92-1,1.4-1.5,1.98-2.07,2.61-4.86,1.74-7.67v-.03s-.02-.02-.02-.02c-.67-2-2.09-3.63-4-4.58-1.05-.53-2.19-.9-3.39-1.12-.93-.16-1.87-.26-2.82-.3-.57-.02-1.01-.05-1.4-.08-4.91-.42-9.91-.63-14.88-.63h0ZM33.03,149.49c4.09-.42,8.19-.72,12.27-.92-2.2.38-4.41.64-6.61.76-1.74.08-3.65.14-5.66.16h0Z"/>
    </g>
    <g>
      <path d="M155.78,162.94c-.84,0-1.71-.07-2.58-.22-.97-.16-1.77-.32-2.46-.49-4.22-1.11-8.41-2.61-12.46-4.47-4.03-1.85-7.87-4-11.44-6.37-.76-.51-1.58-1.17-2.53-2.03-1.06-.97-1.96-2.02-2.66-3.12-.33-.51-.59-1.04-.8-1.57-.52.59-1.01,1.2-1.47,1.83l-.11.14c-.26.33-.49.67-.71,1.04-.2.33-.35.67-.47,1-.02.07-.04.13-.05.19,1.02,1.97.81,3.71.45,4.84-.47,1.48-1.38,2.7-2.64,3.54-1.06.71-2.28,1.08-3.55,1.08-.3,0-.6-.02-.9-.06-1.87-.25-3.46-1.35-4.47-3.09-1.4-2.37-1.94-4.86-1.59-7.42.29-2.11.98-4.14,2.05-6.03.97-1.71,2.18-3.34,3.59-4.84,1.27-1.34,2.51-2.55,3.7-3.58,3.26-2.86,6.76-5.49,10.41-7.81,3.55-2.26,7.22-4.42,10.91-6.43,3.67-2,7.43-3.93,11.18-5.72,3.76-1.8,7.62-3.5,11.49-5.08,1.81-.76,3.7-1.5,5.61-2.18,1.93-.69,3.91-1.32,5.9-1.87.6-.15,1.2-.32,1.9-.53,1.07-.32,2.17-.54,3.26-.63.39-.04.78-.05,1.17-.05.8,0,1.59.07,2.35.22,1.72.33,3.23,1.22,4.35,2.56,1.01,1.21,1.62,2.59,1.83,4.09.15,1.07.15,2.18,0,3.29-.13,1.03-.38,2.07-.75,3.09-.25.7-.46,1.32-.64,1.86l-.06.16c-.81,2.14-1.73,4.21-2.74,6.2-.95,1.87-1.89,3.72-2.83,5.56l-2.23,3.97c.59,0,1.17.01,1.76.01,3.02.02,6.08.04,9.18.04.62,0,1.27.06,1.93.17,1.07.18,2.04.56,2.88,1.15,1.06.73,1.84,1.75,2.27,2.94.43,1.21.45,2.53.07,3.92l-.13.4c-.61,1.52-1.61,2.65-2.93,3.35-.99.52-2.08.81-3.25.86-.24.01-.47.02-.71.02-.48,0-.96-.02-1.44-.06-.38-.03-.69-.05-.94-.05l-15.7-.24c-.39.72-.78,1.43-1.15,2.13-.77,1.44-1.52,2.93-2.25,4.44-.33.7-.66,1.44-.96,2.16-.19.44-.33.94-.41,1.48-.35,2.23-1.55,4.02-3.38,5.04-1.21.67-2.55,1.06-3.99,1.15-.28.02-.57.02-.85.02ZM143.93,146.44c.87.38,1.75.74,2.62,1.08,1.35.52,2.75,1.02,4.16,1.51.39.11.91.3,1.55.55.13.05.26.1.4.15.17-.38.35-.76.55-1.13.4-.76.79-1.49,1.17-2.19-.83,0-1.66-.01-2.49-.02-.64,0-1.29,0-1.93,0-2,0-4.02.02-6.03.07ZM169.65,117.68c-1.86.64-3.72,1.31-5.5,1.98-1.76.67-3.56,1.4-5.34,2.18-3.93,1.66-7.81,3.45-11.55,5.3-3.69,1.83-7.36,3.87-10.91,6.05-.6.36-1.21.73-1.81,1.1.04,0,.07,0,.11,0,1.96-.1,3.92-.17,5.84-.22l5.72-.14c2.03-.03,4.03-.05,6.01-.05.96,0,1.91,0,2.85.01,2.05.02,4.11.03,6.19.03l.42-.74c1.09-2.01,2.23-4.06,3.36-6.1,1.08-1.94,2.17-3.95,3.24-5.99.49-1.04,1.02-2.12,1.56-3.23.05-.1.1-.2.15-.3-.11.04-.23.08-.34.11Z"/>
      <path class="cls-1" d="M176.52,104.33c.72,0,1.42.07,2.1.2,1.42.28,2.66,1,3.58,2.11.84,1.02,1.36,2.17,1.54,3.42.13.95.13,1.94,0,2.94-.12.94-.35,1.89-.68,2.82-.25.71-.47,1.34-.65,1.89l-.04.12c-.79,2.07-1.69,4.1-2.67,6.05-.94,1.86-1.89,3.71-2.83,5.55l-.06.1-3.24,5.77c1.34.02,2.67.03,4,.04,3.03.02,6.09.04,9.19.04.54,0,1.12.05,1.71.15.87.14,1.66.46,2.34.93.83.57,1.45,1.37,1.78,2.31.34.95.35,2,.04,3.13l-.11.34c-.46,1.15-1.26,2.05-2.3,2.6-.81.43-1.71.67-2.69.71-.21,0-.43.01-.65.01-.44,0-.88-.02-1.32-.06-.42-.04-.78-.06-1.06-.06l-16.48-.25c-.53.96-1.04,1.91-1.54,2.85-.78,1.46-1.54,2.97-2.28,4.48-.34.73-.68,1.48-.99,2.22-.23.54-.4,1.14-.5,1.79-.29,1.82-1.25,3.27-2.71,4.09-1.04.58-2.19.91-3.43.98-.25.02-.51.02-.77.02-.77,0-1.56-.07-2.36-.2-.94-.16-1.71-.31-2.36-.47-4.15-1.09-8.25-2.56-12.22-4.39-3.96-1.82-7.75-3.93-11.25-6.27-.7-.47-1.48-1.09-2.37-1.91-.98-.89-1.8-1.85-2.43-2.85-.73-1.15-1.11-2.34-1.13-3.55-1.23,1.15-2.35,2.41-3.33,3.75l-.08.11c-.28.36-.55.75-.8,1.18-.24.41-.43.81-.57,1.22-.09.26-.14.5-.14.76,0,.11.02.22.07.34.9,1.63.75,3.06.45,3.99-.38,1.19-1.11,2.17-2.11,2.83-.85.57-1.81.86-2.82.86-.24,0-.48-.02-.72-.05-1.46-.2-2.7-1.07-3.51-2.44-1.25-2.11-1.73-4.32-1.42-6.57.26-1.94.9-3.81,1.89-5.55.92-1.62,2.06-3.16,3.4-4.58,1.24-1.31,2.45-2.49,3.61-3.49,3.2-2.81,6.66-5.4,10.25-7.69,3.53-2.24,7.17-4.39,10.83-6.39,3.65-1.99,7.39-3.9,11.12-5.69,3.73-1.78,7.57-3.48,11.42-5.05,1.79-.75,3.67-1.49,5.55-2.16,1.9-.68,3.85-1.3,5.8-1.84.59-.15,1.21-.32,1.93-.54.98-.3,1.99-.49,2.99-.58.35-.03.71-.05,1.06-.05M129.41,135.94c.38-.04.76-.07,1.15-.09,1.44-.07,2.82-.15,4.17-.24,1.96-.1,3.89-.17,5.78-.22l5.72-.14c2.01-.03,4-.05,5.97-.05.96,0,1.91,0,2.85.01,2.3.02,4.62.03,6.97.03l.8-1.41c1.1-2.03,2.24-4.08,3.37-6.11,1.09-1.95,2.18-3.98,3.25-6.02.51-1.07,1.04-2.16,1.58-3.26.5-1.02.97-2.06,1.41-3.11.01-.04.03-.08.04-.12-.4.14-.8.28-1.17.43-.78.31-1.46.56-2.08.77-1.88.64-3.76,1.32-5.56,2-1.79.68-3.6,1.42-5.4,2.2-3.95,1.67-7.84,3.46-11.61,5.33-3.73,1.85-7.43,3.91-11.01,6.11-1.63.98-3.28,1.99-4.92,3.02-.44.28-.88.56-1.32.85M153.44,151.33c.26-.72.57-1.42.94-2.12.72-1.36,1.41-2.65,2.08-3.85l.14-.27c-1.57-.02-3.14-.03-4.71-.04-.65,0-1.3,0-1.95,0-2.58,0-5.16.04-7.71.11l-3.81.1c1.2.6,2.42,1.19,3.66,1.79,1.31.61,2.66,1.18,4,1.7,1.36.52,2.77,1.03,4.2,1.53.41.12.9.29,1.5.53.43.17.9.32,1.41.46.08.02.17.04.25.07M176.52,101.69c-.43,0-.86.02-1.29.06-1.18.1-2.37.33-3.52.68-.68.21-1.25.37-1.81.51h-.03s-.03.01-.03.01c-2.02.56-4.03,1.19-5.99,1.9-1.93.69-3.84,1.44-5.69,2.22-3.87,1.57-7.76,3.29-11.54,5.1-3.77,1.8-7.55,3.73-11.25,5.75-3.72,2.03-7.41,4.2-10.98,6.47-3.71,2.36-7.27,5.02-10.58,7.93-1.21,1.05-2.49,2.29-3.78,3.66-1.49,1.58-2.76,3.29-3.78,5.09-1.16,2.04-1.9,4.23-2.21,6.5-.39,2.86.21,5.64,1.77,8.28,1.22,2.08,3.15,3.41,5.43,3.72.36.05.72.07,1.08.07,1.53,0,3.01-.45,4.29-1.3,1.5-1,2.6-2.47,3.16-4.23.55-1.74.45-3.6-.29-5.32.07-.15.15-.3.23-.45.19-.32.38-.61.59-.87l.02-.02.02-.02.08-.11.02-.02.02-.02c.05-.07.11-.15.16-.22.75,1.16,1.7,2.26,2.81,3.28,1,.9,1.87,1.61,2.68,2.15,3.62,2.42,7.53,4.59,11.62,6.47,4.12,1.89,8.37,3.42,12.66,4.55.75.19,1.59.36,2.59.52.94.16,1.88.24,2.79.24.31,0,.62,0,.93-.03,1.64-.1,3.17-.54,4.56-1.31,2.19-1.22,3.62-3.34,4.04-5.99.07-.43.18-.82.32-1.16.3-.7.62-1.41.95-2.13.71-1.46,1.46-2.94,2.22-4.37.25-.47.5-.94.76-1.42l14.88.23c.15,0,.41,0,.86.05.52.05,1.04.07,1.56.07.26,0,.51,0,.77-.02,1.37-.06,2.65-.4,3.8-1.01,1.61-.86,2.83-2.22,3.52-3.96l.03-.07.02-.07.11-.34.02-.07.02-.07c.45-1.66.42-3.24-.09-4.71-.53-1.47-1.49-2.71-2.77-3.6-1-.7-2.15-1.16-3.42-1.36-.73-.12-1.45-.18-2.14-.18-2.97,0-5.89-.01-8.68-.03l1.05-1.87v-.02s.02-.02.02-.02l.06-.1c.97-1.89,1.91-3.74,2.86-5.61,1.03-2.03,1.96-4.15,2.78-6.3l.06-.17v-.03s.02-.03.02-.03c.18-.53.39-1.14.63-1.83.39-1.11.67-2.24.81-3.37.16-1.23.16-2.45,0-3.64-.24-1.76-.96-3.36-2.12-4.76-1.32-1.58-3.09-2.62-5.11-3.02-.84-.16-1.72-.25-2.6-.25h0ZM139.64,132.76c2.7-1.58,5.45-3.06,8.2-4.43,3.72-1.85,7.57-3.62,11.46-5.27,1.79-.78,3.57-1.5,5.31-2.16.91-.35,1.84-.69,2.78-1.03-.1.22-.21.44-.31.65-1.05,2-2.12,3.99-3.2,5.91-1.13,2.03-2.27,4.09-3.37,6.11l-.03.05c-1.82,0-3.62-.02-5.41-.03-.95,0-1.91-.01-2.87-.01-1.97,0-4,.02-6.01.05l-5.74.14c-.27,0-.54.01-.81.02h0ZM151.09,147.76c-.06-.02-.12-.04-.18-.06.32,0,.65,0,.97,0h.3c-.05.09-.1.18-.14.27-.01.03-.03.06-.04.08-.33-.12-.63-.22-.9-.3h0Z"/>
    </g>
    <g>
      <path d="M242.98,165.06c-13.88,0-26.64-.59-39.02-1.8l-.22-.03c-.56-.09-1.33-.17-2.21-.27-6.72-.72-12.95-1.68-16.01-5.48-1.3-1.61-1.87-3.55-1.65-5.61l.02-.16c.32-2.12,1.49-4.1,3.49-5.89,2.23-1.93,4.57-3.28,6.84-4.58.62-.36,1.2-.69,1.76-1.03,9.71-5.6,19.95-10.24,29.86-14.74l.09-.04c4.87-2.21,9.9-4.49,14.77-6.85-4.12.68-8.23,1.56-12.42,2.64l-.13.03c-1.78.4-3.55.98-5.42,1.59-1.41.46-2.84.93-4.32,1.34-.65.18-1.32.28-2,.28-2.5,0-4.73-1.26-5.83-3.28-1.36-2.5-.72-5.44,1.63-7.5l.64-.54.53-.24c8.94-4.11,18.76-5.6,28.26-7.05,1.19-.18,2.37-.36,3.54-.54l.17-.02c1.12-.12,2.21-.26,3.3-.41,2.82-.37,5.66-.75,8.62-.75.52,0,1.05.01,1.58.04,4.82.08,8.77,2.43,10.02,5.99.54,1.53,1.28,5.5-3.43,9.37-4.18,3.4-8.94,5.67-13.54,7.86-1.31.63-2.6,1.24-3.87,1.88-5.89,2.91-11.9,5.69-17.7,8.37-8.86,4.09-17.94,8.29-26.59,12.96,2.81.32,5.63.56,8.38.79l1.29.11c6.68.56,13.63.89,21.89,1.05,3.07.06,6.12.09,9.05.09,2.75,0,5.48-.03,8.13-.08,0-.24.02-.47.05-.71v-.11c.32-2.12,1.49-4.11,3.5-5.91,2.23-1.93,4.58-3.28,6.84-4.59l.11-.06c.56-.32,1.11-.64,1.65-.97,9.7-5.59,19.94-10.24,29.85-14.74,4.9-2.22,9.96-4.52,14.87-6.89-4.12.68-8.23,1.56-12.42,2.64l-.12.03c-1.78.4-3.54.98-5.42,1.59-1.43.47-2.86.94-4.33,1.34-.65.18-1.32.28-2,.28-2.5,0-4.73-1.26-5.83-3.28-1.36-2.5-.72-5.44,1.63-7.49l.65-.54.52-.24c8.94-4.11,18.77-5.61,28.27-7.05,1.19-.18,2.36-.36,3.53-.54l.17-.02c1.12-.12,2.2-.26,3.28-.41,2.83-.37,5.69-.75,8.66-.75.52,0,1.05.01,1.58.04,4.87.12,8.82,2.48,10.03,6.03.53,1.54,1.23,5.56-3.61,9.47-4.12,3.31-8.79,5.54-13.3,7.7-1.23.59-2.45,1.17-3.64,1.77-5.87,2.89-11.87,5.67-17.66,8.36-8.96,4.16-18.18,8.43-26.95,13.1,1.34.15,2.74.3,4.17.44.78-.11,1.53-.23,2.25-.36l.24-.04c.95-.11,1.95-.45,3.01-.82,1.28-.44,2.59-.89,4.14-1.12l.28-.03c.22-.02.38-.02.55-.02,1.94,0,3.71.85,4.85,2.34.28.37.52.77.71,1.2,1.39.07,2.79.13,4.23.18,6.01.2,11.45.3,16.63.3,7.23,0,13.86-.19,20.24-.59l.65-.04c4.51-.3,8.77-.58,12.98-1.33l.24-.04c.99-.11,2.04-.47,3.15-.84,1.22-.41,2.59-.88,4.14-1.12l.29-.04c.22-.02.38-.02.55-.02,1.95,0,3.72.85,4.86,2.34,1.22,1.59,1.55,3.7.87,5.64-1.93,5.74-10.56,7.16-26.86,7.89-1.37.06-2.55.11-3.29.17h-.17c-6.7.25-13.24.37-19.46.37-12.14,0-23.34-.45-34.22-1.36-2.92.33-6.36.58-10.81.78h-.17c-1.22.07-2.24.11-2.94.17h-.16c-7.01.28-13.85.41-20.36.41h-.02Z"/>
      <path class="cls-1" d="M257.28,105.46c.5,0,1.01.01,1.52.04,4.31.07,7.77,2.07,8.84,5.11.45,1.27,1.04,4.58-3.02,7.91-4.05,3.3-8.74,5.53-13.27,7.7-1.31.62-2.61,1.25-3.89,1.89-5.85,2.89-11.85,5.67-17.66,8.35-10.05,4.64-20.43,9.44-30.17,14.92.62.14,1.35.26,2.12.33h.13c3.38.45,6.83.74,10.17,1.02l1.27.11c6.7.56,13.69.89,21.97,1.05,3.12.06,6.14.09,9.08.09,3.28,0,6.45-.04,9.53-.11-.09-.57-.11-1.19-.03-1.86v-.09c.27-1.79,1.3-3.51,3.07-5.1,2.12-1.83,4.41-3.15,6.62-4.43.6-.34,1.19-.69,1.78-1.04,9.62-5.55,19.84-10.18,29.72-14.67,5.21-2.37,10.61-4.81,15.8-7.35,2.18-1.04,4.33-2.09,6.43-3.16-6.93.73-13.69,1.97-20.66,3.76l-.1.02c-1.82.41-3.62,1-5.53,1.62-1.38.45-2.81.92-4.26,1.32-.55.16-1.1.23-1.65.23-1.96,0-3.78-.96-4.67-2.59-1.05-1.94-.52-4.24,1.34-5.87l.49-.4.37-.17c8.77-4.03,18.5-5.51,27.92-6.94,1.19-.18,2.36-.36,3.53-.54l.15-.02c1.11-.12,2.21-.27,3.32-.41,2.73-.36,5.54-.73,8.43-.73.5,0,1.01.01,1.51.04,4.34.1,7.81,2.12,8.85,5.14.44,1.28,1,4.62-3.19,8.01-4,3.21-8.6,5.41-13.05,7.53-1.23.59-2.45,1.17-3.66,1.78-5.84,2.87-11.83,5.65-17.63,8.34-10.17,4.72-20.69,9.6-30.52,15.03.31.06.61.11.88.16l.88.16c2.13.27,4.32.51,6.56.73.85-.12,1.67-.25,2.46-.39l.19-.03c1.05-.12,2.12-.49,3.25-.88,1.22-.42,2.48-.85,3.91-1.06l.23-.03c.13-.01.27-.02.4-.02,1.52,0,2.92.66,3.81,1.82.39.5.65,1.07.8,1.67,1.68.08,3.39.16,5.14.23,5.96.2,11.48.3,16.67.3,7.29,0,13.96-.2,20.32-.59l.66-.04c4.55-.3,8.84-.59,13.12-1.35l.2-.03c1.1-.12,2.21-.5,3.39-.9,1.22-.42,2.49-.85,3.92-1.07l.24-.03c.13-.01.27-.02.4-.02,1.51,0,2.92.66,3.81,1.82.95,1.24,1.2,2.88.67,4.4-1.68,5-10.32,6.32-25.67,7-1.39.06-2.58.11-3.33.17h-.14c-6.69.25-13.14.37-19.38.37-12.12,0-23.45-.46-34.24-1.37-3.12.35-6.73.6-10.86.79-1.32.06-2.41.11-3.16.17h-.13c-7,.27-13.75.41-20.28.41h-.02c-13.79,0-26.64-.59-38.89-1.79l-.18-.02c-.55-.09-1.37-.17-2.31-.28-6.36-.68-12.3-1.58-15.04-4.99-1.07-1.34-1.55-2.94-1.36-4.63l.02-.12c.27-1.79,1.3-3.5,3.06-5.08,2.11-1.83,4.4-3.15,6.62-4.42.6-.34,1.19-.69,1.78-1.04,9.63-5.55,19.84-10.19,29.73-14.67,5.21-2.37,10.6-4.81,15.8-7.34,2.18-1.04,4.33-2.09,6.43-3.16-6.92.73-13.69,1.97-20.65,3.76l-.1.02c-1.82.41-3.62,1-5.53,1.62-1.38.45-2.81.92-4.26,1.32-.55.16-1.1.23-1.65.23-1.96,0-3.78-.96-4.67-2.59-1.05-1.94-.52-4.24,1.34-5.87l.48-.4.37-.17c8.77-4.03,18.5-5.51,27.92-6.94,1.19-.18,2.36-.36,3.53-.54l.15-.02c1.11-.12,2.21-.27,3.32-.41,2.73-.36,5.54-.73,8.42-.73M257.28,102.82c-3.04,0-5.94.38-8.74.75l.3,2.63-.35-2.62c-1.07.14-2.17.29-3.23.4h-.04s-.04,0-.04,0l-.15.02h-.03s-.03,0-.03,0c-1.17.18-2.34.36-3.52.54-9.6,1.46-19.51,2.97-28.62,7.16l-.37.17-.32.15-.27.22-.48.4-.02.02-.02.02c-2.79,2.44-3.56,6.1-1.92,9.12,1.33,2.45,4.01,3.97,6.99,3.97.8,0,1.6-.11,2.37-.33,1.49-.41,2.94-.88,4.34-1.34,1.87-.61,3.61-1.18,5.3-1.56l.14-.03c.44-.11.88-.22,1.32-.33-1.52.69-3.03,1.38-4.53,2.06l-.06.03c-9.94,4.51-20.21,9.17-29.95,14.79-.6.36-1.16.68-1.73,1.01l-.05.03c-2.32,1.34-4.72,2.72-7.03,4.71-2.27,2.03-3.59,4.27-3.95,6.68l-.02.17v.03s0,.03,0,.03c-.26,2.41.41,4.68,1.93,6.58,3.38,4.2,9.89,5.22,16.82,5.96.92.1,1.7.18,2.18.26h.04s.04.01.04.01l.18.02h.04s.04,0,.04,0c12.43,1.21,25.23,1.8,39.15,1.8,6.54,0,13.39-.14,20.4-.4h.03s.03,0,.03,0h.13s.03,0,.03,0h.03c.67-.06,1.71-.11,2.92-.16h.15c4.42-.21,7.85-.46,10.77-.78,10.88.91,22.07,1.36,34.21,1.36,6.23,0,12.79-.12,19.48-.36h.03s.03,0,.03,0h.14s.03,0,.03,0h.03c.7-.06,1.87-.11,3.22-.17,16.92-.75,25.9-2.32,28.08-8.8.82-2.33.42-4.91-1.08-6.85-1.39-1.81-3.55-2.85-5.91-2.85-.2,0-.4,0-.6.02h-.05s-.05,0-.05,0l-.24.03h-.05s-.05.01-.05.01c-1.66.26-3.09.75-4.36,1.18-1.04.35-2.02.68-2.83.77h-.04s-.04.01-.04.01l-.2.03h-.04s-.04.01-.04.01c-4.14.73-8.36,1.01-12.83,1.31l-.66.04c-6.35.39-12.94.58-20.15.58-5.16,0-10.59-.1-16.59-.3-1.16-.04-2.31-.09-3.44-.15-.15-.25-.31-.49-.49-.72-1.39-1.81-3.54-2.85-5.9-2.85-.2,0-.4,0-.6.02h-.05s-.05,0-.05,0l-.23.03h-.05s-.05.01-.05.01c-1.67.25-3.11.74-4.37,1.18-.99.34-1.93.66-2.7.75h-.04s-.04.01-.04.01l-.19.03h-.04s-.04.01-.04.01c-.45.08-.94.16-1.45.24,7.48-3.83,15.22-7.42,22.76-10.92,5.82-2.7,11.81-5.48,17.7-8.37,1.17-.59,2.38-1.17,3.55-1.73l.08-.04c4.58-2.19,9.32-4.46,13.56-7.86,3.82-3.08,5.32-7.17,4.04-10.93-1.39-4.07-5.81-6.78-11.25-6.92-.52-.02-1.07-.04-1.61-.04-3.06,0-5.96.38-8.77.75-1.11.15-2.21.29-3.27.41h-.04s-.03,0-.03,0l-.15.02h-.03s-.03,0-.03,0c-1.09.17-2.18.34-3.28.5l-.24.04c-9.59,1.46-19.51,2.97-28.62,7.16l-.36.17-.32.15-.27.22-.49.4-.03.02-.03.02c-2.79,2.44-3.56,6.1-1.92,9.12,1.33,2.45,4.01,3.97,6.99,3.97.8,0,1.6-.11,2.37-.33,1.49-.41,2.94-.88,4.34-1.34,1.88-.62,3.61-1.18,5.31-1.56l.14-.03c.44-.11.88-.23,1.32-.33-1.54.7-3.08,1.4-4.6,2.09-9.94,4.51-20.21,9.17-29.95,14.79-.6.36-1.18.69-1.75,1.02-2.35,1.35-4.75,2.74-7.06,4.73-2.2,1.97-3.5,4.13-3.9,6.45-2.27.04-4.59.06-6.93.06-2.92,0-5.96-.03-9.03-.09-8.23-.16-15.15-.49-21.81-1.05l-1.27-.11c-1.33-.11-2.68-.23-4.03-.35,7.45-3.85,15.14-7.41,22.64-10.87,5.85-2.7,11.87-5.48,17.75-8.39,1.29-.65,2.59-1.27,3.86-1.87,4.67-2.23,9.5-4.53,13.8-8.03,1.4-1.15,5.79-5.31,3.85-10.84-1.43-4.08-5.84-6.78-11.25-6.88-.52-.02-1.06-.04-1.6-.04h0Z"/>
    </g>
  </g>
  <g>
    <polygon points="117.33 74.92 117.33 22.17 128.73 22.17 128.73 63.95 149.12 63.95 149.12 74.92 117.33 74.92"/>
    <path class="cls-1" d="M127.4,23.49v41.78h20.39v8.33h-29.15V23.49h8.75M130.05,20.85h-14.04v55.4h34.44v-13.62h-20.39V20.85h0Z"/>
  </g>
  <g>
    <path d="M170.38,75.91c-12.44,0-22.57-9.9-22.57-22.07s9.91-21.72,22.57-21.72,22.57,9.66,22.57,22c0,.74-.08,1.94-.31,3.08l-.21,1.06h-32.1c1.47,3.99,5.52,6.74,10.2,6.74,4.25,0,7.59-1.96,9.17-5.37l.36-.77h12.41l-.57,1.74c-3.05,9.3-11.49,15.31-21.51,15.31ZM180.08,48.92c-1.37-3.49-5.26-5.89-9.84-5.89s-8.62,2.36-9.84,5.89h19.68Z"/>
    <path class="cls-1" d="M170.38,33.44c11.93,0,21.24,8.96,21.24,20.68,0,.64-.07,1.76-.28,2.82h-32.75c.99,5.36,6,9.39,11.93,9.39,4.66,0,8.54-2.19,10.37-6.14h9.74c-2.75,8.4-10.51,14.4-20.25,14.4-11.93,0-21.24-9.32-21.24-20.75s9.32-20.4,21.24-20.4M158.74,50.24h23.08c-.78-4.66-5.36-8.54-11.57-8.54s-10.87,3.6-11.5,8.54M170.38,30.8c-13.4,0-23.89,10.12-23.89,23.04,0,6.27,2.46,12.15,6.94,16.55,4.49,4.42,10.51,6.85,16.95,6.85,10.6,0,19.54-6.37,22.77-16.22l1.14-3.47h-.37l.02-.08c.25-1.23.33-2.53.33-3.34,0-13.08-10.49-23.32-23.89-23.32h0ZM162.6,47.59c1.54-2,4.32-3.25,7.64-3.25s6.02,1.39,7.53,3.25h-15.16ZM162.48,59.59h15.75c-1.45,2.61-4.23,4.09-7.71,4.09s-6.36-1.61-8.04-4.09h0Z"/>
  </g>
  <g>
    <polygon points="198.2 74.85 198.2 44.08 192.2 44.08 192.2 33.18 198.2 33.18 198.2 22.17 209.67 22.17 209.67 33.18 215.88 33.18 215.88 44.08 209.67 44.08 209.67 63.95 215.67 63.95 215.67 74.85 198.2 74.85"/>
    <path class="cls-1" d="M208.35,23.49v11.01h6.21v8.26h-6.21v22.51h6v8.26h-14.82v-30.77h-6v-8.26h6v-11.01h8.82M210.99,20.85h-14.11v11.01h-6v13.55h6v30.77h20.11v-13.55h-6v-17.22h6.21v-13.55h-6.21v-11.01h0Z"/>
  </g>
  <g>
    <path d="M247.09,75.91c-8.89,0-15.86-6.07-15.86-13.81v-1.32h11.43l.04,1.29c.05,1.76,2,3.09,4.53,3.09,2.09,0,4.32-.76,4.32-2.91,0-1.84-1.74-2.49-5.43-3.44l-.57-.15c-6.3-1.58-13.55-4.51-13.55-13.28,0-7.43,6.75-13.25,15.37-13.25s15.37,5.94,15.37,13.53v1.33l-11.47-.09v-1.31c0-1.9-2.02-2.77-3.9-2.77s-3.9.78-3.9,2.49c0,1.54,1.71,2.15,5.35,3.09l.71.18c5.29,1.36,13.28,3.41,13.28,13.53,0,7.62-7.05,13.81-15.72,13.81Z"/>
    <path class="cls-1" d="M247.37,33.44c7.69,0,14.04,5.29,14.04,12.21l-8.82-.07c0-2.61-2.47-4.09-5.22-4.09s-5.22,1.41-5.22,3.81c0,2.89,3.39,3.6,6.92,4.52,5.22,1.34,12.42,3.11,12.42,12.28,0,6.92-6.49,12.49-14.4,12.49-8.33,0-14.54-5.65-14.54-12.49h8.82c.07,2.54,2.61,4.38,5.86,4.38,3.46,0,5.65-1.69,5.65-4.23,0-3.25-3.46-3.95-6.99-4.87-7.34-1.83-12.56-4.87-12.56-12,0-6.7,6.07-11.93,14.04-11.93M247.37,30.8c-9.36,0-16.69,6.4-16.69,14.57,0,8.88,6.83,12.34,12.77,14.08h-13.54v2.65c0,8.49,7.55,15.14,17.18,15.14s17.04-6.79,17.04-15.14c0-9.01-5.84-12.23-10.89-13.86l8.16.07,2.67.02v-2.67c0-8.33-7.33-14.86-16.69-14.86h0ZM249.95,47.31s-.06-.01-.08-.02l-.14-.04-.57-.15c-1.74-.45-4.36-1.12-4.36-1.81s1.33-1.16,2.58-1.16c1.04,0,2.58.39,2.58,1.45v1.73h0ZM247.23,63.83c-1.74,0-3.18-.81-3.21-1.8l-.07-2.43c.44.12.87.24,1.3.34l.55.14c3.48.89,4.43,1.36,4.43,2.16,0,1.51-2.5,1.59-3,1.59h0Z"/>
  </g>
  <g>
    <path d="M271.34,240.65c-3.53,0-6.4-2.9-6.4-6.47s2.87-6.4,6.4-6.4,6.4,2.87,6.4,6.4-2.87,6.47-6.4,6.47ZM266.43,225.33v-38.21h9.7v38.21h-9.7Z"/>
    <path class="cls-1" d="M274.81,188.44v35.57h-7.06v-35.57h7.06M271.34,229.09c2.82,0,5.08,2.26,5.08,5.08s-2.26,5.15-5.08,5.15-5.08-2.33-5.08-5.15,2.26-5.08,5.08-5.08M277.46,185.79h-12.35v40.86h4.43c-3.4.81-5.93,3.87-5.93,7.52,0,4.3,3.47,7.8,7.73,7.8s7.73-3.5,7.73-7.8c0-3.64-2.53-6.7-5.93-7.52h4.32v-40.86h0Z"/>
  </g>
  <g>
    <path d="M227.96,28.8c-3.24,0-5.87-2.63-5.87-5.87s2.63-5.87,5.87-5.87c.41,0,.81.04,1.2.12V6.12h4.67l-.02,16.99c-.12,3.21-2.69,5.69-5.85,5.69Z"/>
    <path class="cls-1" d="M232.5,7.44l-.02,15.66c-.09,2.43-2.08,4.37-4.53,4.37s-4.55-2.04-4.55-4.55,2.04-4.55,4.55-4.55c.93,0,1.8.28,2.52.77V7.44h2.02M235.15,4.8h-7.32v10.95c-3.91.07-7.07,3.27-7.07,7.19s3.23,7.19,7.19,7.19,7.02-3.04,7.17-6.92v-.05s0-.05,0-.05l.02-15.66v-2.65h0Z"/>
  </g>
</svg>